<?xml version="1.0" encoding="UTF-8" standalone="no"?>
<!-- Created with Inkscape (http://www.inkscape.org/) -->

<svg
   version="1.1"
   id="svg1"
   width="1300"
   height="320"
   viewBox="0 0 1300 320"
   sodipodi:docname="logo_all.svg"
   inkscape:version="1.4.2 (ebf0e940, 2025-05-08)"
   xmlns:inkscape="http://www.inkscape.org/namespaces/inkscape"
   xmlns:sodipodi="http://sodipodi.sourceforge.net/DTD/sodipodi-0.dtd"
   xmlns="http://www.w3.org/2000/svg"
   xmlns:svg="http://www.w3.org/2000/svg">
  <defs
     id="defs1" />
  <sodipodi:namedview
     id="namedview1"
     pagecolor="#ffffff"
     bordercolor="#000000"
     borderopacity="0.25"
     inkscape:showpageshadow="2"
     inkscape:pageopacity="0.0"
     inkscape:pagecheckerboard="true"
     inkscape:deskcolor="#d1d1d1"
     showgrid="false"
     inkscape:zoom="1.2333933"
     inkscape:cx="569.5669"
     inkscape:cy="41.754727"
     inkscape:window-width="2528"
     inkscape:window-height="1188"
     inkscape:window-x="0"
     inkscape:window-y="31"
     inkscape:window-maximized="0"
     inkscape:current-layer="g1">
    <inkscape:page
       x="0"
       y="0"
       inkscape:label="1"
       id="page1"
       width="1300"
       height="320"
       margin="0"
       bleed="0" />
  </sodipodi:namedview>
  <g
     id="g1"
     inkscape:groupmode="layer"
     inkscape:label="1">
    <g
       id="g26"
       transform="matrix(1.8845985,0,0,1.8927,-79.62614,-105.10825)">
      <path
         d="m 71.027286,57.634355 c -8.5638,-0.244 -17.05982,4.40271 -21.07812,12.34571 -1.43226,2.82933 -0.72651,4.25461 2.51562,4.61328 -0.46613,1.06133 -0.89146,1.98773 -1.2832,2.92773 -3.59893,8.64 -0.53035,16.86019 7.85351,20.992185 1.1896,0.58533 2.4108,1.11294 3.64453,1.59962 2.44174,0.96267 2.4494,0.94359 1.70313,3.54492 -0.0672,0.232 -0.1496,0.45808 -0.2168,0.69141 -2.1,7.22533 -5.42716,13.92658 -8.74023,20.64258 -3.52813,7.14534 -6.78168,14.40603 -9.25781,22.00976 -3.55773,10.92294 -3.35887,21.99791 -1.66407,33.14844 2.34213,15.4172 10.33383,27.39765 22.8125,36.42578 6.7,4.84946 14.36879,6.24072 22.62305,6.03125 14.851074,-0.37343 29.716304,-0.23241 44.576174,-0.28711 5.37467,-0.0188 10.74961,-0.0148 16.12695,0.0508 1.50801,0.0172 2.32682,-0.54243 2.74415,-2.0039 0.59467,-2.08693 1.36015,-4.12368 2.02148,-6.19141 0.24667,-0.7656 0.58772,-1.16106 1.51172,-1.16406 13.47067,-0.0308 26.93887,-0.0997 40.4082,-0.20117 1.05867,-0.006 1.49136,0.45488 1.80469,1.35742 0.72534,2.10946 1.58214,4.17554 2.27148,6.29687 0.464,1.42707 1.30479,1.97733 2.80078,1.98633 5.25468,0.0333 10.50849,0.11662 15.75782,0.29688 1.42667,0.0479 1.75662,-0.49092 1.76562,-1.76172 0.0173,-2.412 0.19958,-4.82398 0.23828,-7.23438 0.0133,-0.924 0.359,-1.35133 1.23633,-1.68359 6.03334,-2.276 9.01915,-6.65374 9.06445,-13.17774 0.064,-8.81613 0.1248,-17.63503 0.1875,-26.45117 0.136,-19.57093 0.26179,-39.14089 0.42579,-58.71289 0.0187,-2.05867 -0.13094,-4.05731 -0.57227,-6.08398 -1.64667,-7.552 -6.78276,-11.776885 -14.49609,-11.796885 -21.98666,-0.06 -43.97232,-0.13308 -65.95899,-0.20508 -2.11466,-0.004 -4.22908,-0.0468 -6.34375,-0.0508 -0.70133,-0.003 -1.20512,-0.10114 -0.95312,-1.00781 1.24667,-4.496 0.92014,-8.83465 -1.47852,-12.94531 3.23066,-0.664 3.92365,-2.04591 2.70899,-5.11524 -2.71867,-6.864 -9.76601,-11.73366 -17.21094,-11.875 -4.80253,-0.0893 -8.95409,1.68673 -12.71875,4.52539 -0.812,0.61334 -1.48633,1.17804 -2.73633,0.72071 -6.9328,-2.52667 -14.0343,-2.79143 -21.220704,-1.2461 -0.86307,0.184 -1.45305,0.0987 -1.97852,-0.72265 -2.5364,-3.96533 -6.29257,-6.46347 -10.4707,-8.35547 -2.7064,-1.227 -5.56923,-1.85226 -8.42383,-1.9336 z"
         style="fill:#006680;stroke-width:0.133333"
         id="path26" />
      <path
         id="path12"
         d="m 176.584,164.00013 c 0,0.1744 -0.001,0.35054 -0.001,0.52494 2.596,0 5.192,-0.0505 7.78534,0.012 3.69466,0.0912 6.132,-2.18227 6.208,-5.92494 0.0773,-3.86413 0.13733,-7.7308 0.18,-11.5948 0.052,-4.86933 -2.488,-7.58 -7.35734,-7.7 -4.89066,-0.12 -9.784,-0.10266 -14.67733,-0.15466 -2.22533,-0.0227 -3.804,1.00666 -4.8,2.952 -0.724,1.41333 -1.13733,2.9136 -1.144,4.51986 -0.0187,3.98694 -0.0707,7.9724 -0.0827,11.9588 -0.008,2.8932 2.26934,5.3068 5.19734,5.388 2.89466,0.0828 5.79466,0.0188 8.692,0.0188 z m 1.53066,12.8172 c 0,1.69214 0.007,3.3828 -0.003,5.07334 -0.008,1.70426 -0.30267,3.3464 1.04666,4.90106 1.06,1.22294 0.39067,3.42294 -0.88533,4.36827 -1.256,0.9292 -3.16533,0.7172 -4.29467,-0.48027 -1.216,-1.29053 -1.236,-2.9156 0.0347,-4.37853 0.456,-0.52667 0.74,-1.00787 0.74533,-1.7464 0.0373,-5.136 0.0653,-10.2724 0.23734,-15.40413 0.0547,-1.59334 -0.792,-1.52134 -1.88,-1.6188 -1.22,-0.10787 -1.52,0.4708 -1.36,1.47866 0.84533,5.312 -1.14267,9.32654 -5.46267,12.3896 -1.168,0.82814 -2.06,2.03694 -3.13733,3.0052 -0.644,0.576 -1.04134,1.14947 -1.23334,2.06147 -0.43066,2.04373 -2.77333,3.3156 -4.77466,2.8 -1.98,-0.50947 -2.828,-2.1 -2.34534,-4.3964 0.404,-1.92133 2.05734,-2.99427 4.29334,-2.55987 0.97333,0.19067 1.51733,-0.0479 2.17333,-0.7188 1.89867,-1.94213 3.84267,-3.84786 5.86133,-5.66773 0.84934,-0.76667 1.164,-1.56813 1.13467,-2.676 -0.0427,-1.56827 0.0373,-3.14107 0.10533,-4.71093 0.0373,-0.8396 -0.276,-1.1172 -1.14,-1.1864 -3.06,-0.25054 -4.57733,0.8052 -5.23733,3.79893 -0.36933,1.6812 -2.06667,2.91307 -3.768,2.73693 -1.75467,-0.1812 -3.03733,-1.64786 -3.044,-3.47866 -0.007,-2.1828 1.50267,-3.87854 3.588,-4.0708 0.804,-0.0744 1.66,0.33653 2.4,-0.41307 0.568,-0.57187 0.972,-0.952 0.248,-1.7452 -0.98533,-1.08027 -1.604,-2.4068 -1.98267,-3.8256 -0.25066,-0.94267 -0.55333,-1.2292 -1.436,-0.4292 -1.38933,1.26253 -2.95066,1.30787 -4.05733,0.31467 -1.18667,-1.06507 -1.33067,-2.85467 -0.344,-4.29227 0.984,-1.43333 2.49067,-1.81453 4.11333,-0.85147 1.296,0.77027 1.75334,0.64894 1.70534,-0.96306 -0.0733,-2.47454 -0.0507,-4.95574 0.04,-7.43067 0.16933,-4.55853 1.592,-8.43453 6.14266,-10.4092 0.91334,-0.39733 0.65734,-0.77067 0.19734,-1.31867 -0.85334,-1.01866 -1.69334,-2.05066 -2.49467,-3.10933 -0.89733,-1.18667 -1.86,-1.12133 -2.92533,-0.26667 -1.876,1.504 -3.404,1.49067 -4.72267,-0.0267 -1.23867,-1.42534 -1.01067,-3.732 0.49867,-5.048 1.30266,-1.13467 2.84133,-1.15067 4.02133,0.132 0.63067,0.68666 1.22,1.05333 2.164,0.94933 1.40133,-0.15467 2.40267,0.53467 3.212,1.64133 1.64133,2.24534 3.112,4.95467 5.43867,6.22134 2.27733,1.24 5.31733,0.296 8.02,0.40933 2.10933,0.088 4.228,-0.0867 6.33466,0.204 5.104,0.70267 8.936,5.16 8.83334,10.2972 -0.0507,2.53747 -0.0507,2.53747 2.46533,2.56147 0.90667,0.009 1.81333,0.012 2.71867,0.0375 0.96799,0.0276 1.78666,-0.0271 2.60133,-0.83586 1.12666,-1.12294 3.20933,-0.78814 4.228,0.41706 1.05466,1.248 0.98533,3.26774 -0.15467,4.4948 -1.108,1.19334 -2.704,1.29334 -4.02667,0.10374 -0.59066,-0.5292 -1.15066,-0.7532 -1.92133,-0.75987 -1.63066,-0.0147 -3.26266,-0.0772 -4.888,-0.19747 -0.97066,-0.0692 -1.21466,0.3136 -1.26,1.236 -0.18666,3.80827 -0.21866,3.8176 3.53067,3.87334 1.824,0.0292 3.61466,0.4068 5.39866,-0.7224 1.07867,-0.68427 2.36667,0.0131 3.06934,1.19333 0.78666,1.32493 0.53066,2.57853 -0.53734,3.6224 -0.98,0.9588 -2.132,1.13227 -3.29066,0.31867 -2.45867,-1.72494 -5.24933,-0.8068 -7.88933,-0.96774 -0.83467,-0.0509 -1.256,1.65574 -0.576,2.29747 1.49333,1.40773 3.06266,2.73587 4.60133,4.09427 0.59067,0.524 1.28133,0.11093 1.92133,0.1964 1.588,0.2104 2.81067,1.39573 2.97067,2.95306 0.15466,1.5052 -0.75734,2.87454 -2.21867,3.33494 -1.51466,0.4744 -3.27066,-0.0975 -3.704,-1.71614 -0.54266,-2.0256 -2.09333,-2.96413 -3.41733,-4.20426 -0.44133,-0.41187 -0.87867,-0.83854 -1.36667,-1.188 -0.45333,-0.32494 -0.792,-1.16774 -1.45866,-0.764 -0.67867,0.41346 -1.51734,0.81453 -1.58534,1.83333 -0.13733,2.052 -0.292,3.94947 1.69067,5.51453 2.12,1.67507 3.908,3.7708 5.82667,5.69747 0.57733,0.58013 1.06133,0.93067 2.028,0.60667 1.65999,-0.55827 3.47333,0.54533 4.00399,2.19066 0.588,1.83334 -0.44533,3.78694 -2.37733,4.4896 -1.65066,0.60107 -3.09866,-0.0812 -3.83066,-2.00266 -0.404,-1.0588 -1.05067,-1.83227 -1.84667,-2.59054 -2.184,-2.08706 -4.22267,-4.32973 -6.472,-6.33906 -1.756,-1.56774 -2.77067,-3.28227 -2.432,-5.69067 0.096,-0.67707 0.23333,-1.52653 -0.95467,-1.4948 -1.10266,0.0297 -0.82133,0.84267 -0.83733,1.44427 -0.0573,2.1136 -0.0773,4.22653 -0.10667,6.3412 -0.0347,2.51613 0.94534,3.51453 3.392,3.5296 1.548,0.009 2.46934,0.85573 2.81334,2.3276 0.39733,1.69906 -0.47334,3.34013 -2.07067,3.9724 -1.42133,0.56413 -2.78533,0.0719 -3.22,-1.1656 -0.65467,-1.86667 -2.09067,-3.0292 -3.20133,-4.47347 -0.83334,-1.0812 -1.18667,-2.1848 -1.13734,-3.5104 0.0893,-2.41453 0.0947,-4.83333 0.19334,-7.2468 0.04,-0.96773 -0.21334,-1.4052 -1.28667,-1.43707 -1.17467,-0.0391 -1.24667,0.56774 -1.23733,1.4532 0.0267,2.53854 0.009,5.0744 0.009,7.612 -0.0733,0 -0.14533,0 -0.21867,0"
         style="fill:#ffffff;fill-opacity:1;fill-rule:nonzero;stroke:none;stroke-width:0.133333" />
      <path
         id="path13"
         d="m 215.59199,178.40373 c 0,0.9032 -0.007,1.80414 10e-4,2.70574 0.0173,1.80933 0.796,2.6308 2.63733,2.66413 1.44133,0.0265 2.88667,-0.0787 4.32933,-0.0605 1.08267,0.0152 1.628,-0.45147 1.88534,-1.50614 0.576,-2.37093 0.38533,-4.78546 0.47733,-7.1776 0.0427,-1.08293 -0.696,-1.75733 -1.85733,-1.78813 -0.72134,-0.0197 -1.444,-0.0375 -2.16534,-0.0375 -5.13733,-0.003 -5.14666,0.008 -5.308,5.2 z m -0.68533,-43.3744 c 0.0227,0 0.044,0 0.0653,0 0,0.54267 0.003,1.08534 0,1.628 -0.003,0.54267 -0.007,1.08534 -0.0133,1.628 -0.0213,1.96667 0.508,2.672 2.5,2.69867 2.10267,0.0293 4.21067,-0.192 6.31333,-0.34 1.01867,-0.0693 1.532,-0.77867 1.55467,-1.69467 0.0707,-2.71066 0.0853,-5.42533 0.04,-8.13866 -0.0173,-1.08934 -0.59867,-1.812 -1.816,-1.808 -2.35067,0.009 -4.69867,-0.032 -7.048,0.19066 -1.23733,0.11867 -1.66667,0.67067 -1.61067,1.85734 0.0627,1.324 0.0147,2.652 0.0147,3.97866 z m -31.77466,65.7744 c -9.66667,0 -19.33467,-0.0959 -28.99867,0.0563 -3.03333,0.0479 -5.90133,-0.17453 -8.57467,-1.62133 -4.172,-2.25894 -6.42,-5.7292 -6.42666,-10.54534 -0.004,-4.16826 -0.004,-8.33746 -0.0107,-12.5068 -0.003,-1.2052 0.0667,-2.52813 1.624,-2.52133 1.50133,0.007 1.68933,1.2812 1.69067,2.51093 0.007,3.92507 0.144,7.85734 -0.001,11.77867 -0.24133,6.4344 4.98934,9.6036 9.756,9.612 19.272,0.0307 38.54267,-0.0281 57.81333,-0.048 4.87734,-0.006 6.35734,-1.09893 7.76267,-5.80827 0.20667,-0.69066 0.28267,-1.4188 0.46667,-2.1188 0.424,-1.62386 0.116,-2.48226 -1.84934,-2.69573 -2.11333,-0.2292 -3.86666,-2.36 -4.07333,-4.53867 -0.26267,-2.77333 -0.10533,-5.5624 0.28267,-8.31186 0.344,-2.42294 1.94133,-3.74427 4.864,-4.02814 1.25333,-0.1224 1.45333,-0.6052 1.43866,-1.68386 -0.0987,-7.49067 -0.16533,-14.9828 -0.20266,-22.47347 -0.005,-0.96133 -0.24934,-1.31333 -1.28934,-1.432 -4.37066,-0.49467 -5.81733,-2.272 -5.75866,-6.66533 0.032,-2.41467 -0.16534,-4.836 -0.0573,-7.24534 0.152,-3.42933 1.27067,-4.464 4.668,-4.69333 2.596,-0.176 2.624,-0.18267 1.976,-2.73333 -0.62666,-2.45867 -2.10133,-4.168 -4.58666,-4.92134 -2.268,-0.68933 -4.6,-0.96133 -6.95734,-1.10266 -13.34133,-0.796 -26.69599,-0.27734 -40.04399,-0.38667 -3.68534,-0.0307 -7.372,-0.0133 -11.056,-0.0333 -0.664,-0.003 -1.33334,-0.0227 -1.98667,-0.12134 -1.032,-0.156 -1.93067,-0.58 -1.83333,-1.82 0.0973,-1.24666 1.04133,-1.48666 2.096,-1.492 6.04133,-0.0253 12.08133,-0.104 18.12266,-0.0693 10.028,0.056 20.05734,0.11733 30.08267,0.31333 3.79466,0.0747 7.60933,0.23467 11.344,1.07467 4.95466,1.11333 8.09066,4.72267 8.37333,9.804 0.0573,1.04533 0.37067,1.292 1.35467,1.332 3.99066,0.16133 5.65733,2.00667 5.636,6.07467 -0.0107,2.23466 -0.02,4.46933 -0.012,6.704 0.012,3.25066 -1.84267,5.34 -5.12,5.60266 -1.07734,0.0867 -1.59867,0.336 -1.58534,1.57467 0.088,7.612 0.10534,15.224 0.128,22.8376 10e-4,0.8796 0.0587,1.44107 1.23467,1.45827 2.368,0.036 4.43867,1.63333 4.704,3.9428 0.38533,3.35306 0.35333,6.75306 -0.68667,10.03226 -0.612,1.92494 -1.94,3.04534 -4.028,3.0172 -1.236,-0.0188 -1.59333,0.51294 -1.67866,1.72494 -0.212,2.9844 -1.04,5.81613 -2.70134,8.35213 -1.71333,2.61613 -4.04,3.97493 -7.26266,3.952 -9.54667,-0.0667 -19.092,-0.0239 -28.63733,-0.0239 0,-0.0385 0,-0.0761 0,-0.1136"
         style="fill:#ffffff;fill-opacity:1;fill-rule:nonzero;stroke:none;stroke-width:0.133333" />
      <path
         id="path14"
         d="m 110.74533,141.63067 c 4.43493,2.78666 8.8844,4.24546 13.44013,5.4372 5.5864,1.4604 11.34787,1.56293 17.04387,2.164 3.58933,0.37866 6.90267,1.31453 8.132,5.21453 1.236,3.9136 -0.32267,7.1 -3.14533,9.76053 -3.78267,3.56667 -8.47867,5.31187 -13.4576,6.23334 -12.45574,2.30933 -24.8672,2.0224 -37.169869,-1.1152 -1.4552,-0.3692 -2.861467,-0.95054 -4.266133,-1.49427 -0.905734,-0.35107 -1.6516,-0.9468 -1.220267,-2.05627 0.426,-1.09733 1.4,-1.0796 2.298933,-0.74373 10.778136,4.04373 21.948396,4.3344 33.223996,3.424 4.9504,-0.4 9.81627,-1.31453 14.31894,-3.576 2.23733,-1.12293 4.29066,-2.50947 5.696,-4.636 2.39733,-3.63067 0.972,-7.11773 -3.308,-7.72813 -4.35734,-0.61974 -8.77867,-0.79587 -13.13507,-1.42547 -7.59533,-1.09587 -14.84227,-3.27453 -21.25573,-7.69053 -0.24854,-0.172 -0.50267,-0.33867 -0.73134,-0.536 -0.8948,-0.76934 -2.19586,-1.39067 -1.81093,-2.85067 0.39173,-1.48533 1.83133,-1.10667 2.90573,-1.24267 9.65934,-1.23333 18.75107,-3.948 25.76734,-11.11066 8.12933,-8.29867 8.892,-18.08534 4.84,-28.516002 -2.97334,-7.652 -11.2948,-17.045333 -17.29894,-22.517333 -0.5344,-0.486667 -1.0912,-0.96 -1.5652,-1.502667 -0.47386,-0.541333 -0.61146,-1.186666 -0.11666,-1.817333 0.53333,-0.677333 1.21573,-0.712 1.94693,-0.369333 0.21613,0.1 0.42133,0.242666 0.60053,0.401333 8.01614,7.069333 17.81867,18.384 20.66,28.923995 3.62534,13.448 -1.54533,25.63734 -13.77666,32.92934 -5.41667,3.23066 -11.3256,5.048 -17.48694,6.15466 -0.2204,0.04 -0.4344,0.108 -1.12973,0.28534"
         style="fill:#ffffff;fill-opacity:1;fill-rule:nonzero;stroke:none;stroke-width:0.133333" />
      <path
         id="path15"
         d="m 135.352,115.93067 c -0.12534,1.37733 -0.16667,2.77066 -0.39067,4.13333 -1.008,6.13467 -5.22747,9.02 -11.33787,7.72533 -3.0688,-0.65066 -5.6912,-1.98933 -6.92133,-5.16266 -0.37667,-0.972 -0.57347,-1.932 -0.38653,-2.99467 0.7396,-4.21067 1.22706,-8.496 3.31413,-12.32667 1.70253,-3.12666 4.19893,-5.248 7.98693,-4.79733 3.7584,0.44533 5.69734,3.08533 6.78467,6.45067 0.72933,2.256 0.91867,4.6 0.95067,6.972"
         style="fill:#ffffff;fill-opacity:1;fill-rule:nonzero;stroke:none;stroke-width:0.133333" />
      <path
         id="path16"
         d="m 129.4432,209.1704 c 1.62293,-0.31973 2.9656,-0.6344 4.3488,-0.59427 5.48266,0.1584 9.40133,3.99587 10.23866,10.07707 0.12934,0.94693 -0.19466,1.73226 -1.22533,1.8932 -0.93467,0.14693 -1.44667,-0.4728 -1.69067,-1.3 -0.22266,-0.7504 -0.364,-1.52494 -0.58933,-2.2728 -1.22,-4.08027 -4.944,-6.19907 -9.05027,-5.07867 -1.272,0.34787 -2.48386,0.91813 -3.71413,1.4104 -0.86973,0.3468 -1.7416,0.64787 -2.51973,-0.136 -0.79427,-0.80147 -0.4652,-1.6692 -0.0313,-2.50253 1.61987,-3.1068 3.1208,-6.24947 3.886,-9.71093 2.076,-9.39587 -1.80373,-16.58387 -10.93546,-19.57867 -9.7948,-3.2104 -19.604669,-2.93853 -29.286402,0.62547 -1.232267,0.45466 -2.3448,1.23186 -3.516667,1.8532 -0.872933,0.46146 -1.7828,0.6656 -2.378666,-0.336 -0.598934,-1.0068 0.024,-1.712 0.8416,-2.25827 3.589599,-2.39227 7.643333,-3.5308 11.821466,-4.29747 8.117069,-1.4896 16.127069,-1.04786 23.923869,1.69747 10.2636,3.61293 14.92373,12.30107 12.5104,22.96347 -0.57187,2.52293 -1.54214,4.9068 -2.6328,7.54533"
         style="fill:#ffffff;fill-opacity:1;fill-rule:nonzero;stroke:none;stroke-width:0.133333" />
      <path
         id="path17"
         d="m 103.19013,107.156 c 0.006,-2.46 1.51827,-4.13067 3.77493,-4.172 2.08547,-0.0387 3.85427,1.816 3.812,3.99733 -0.0448,2.30934 -2.00306,4.256 -4.3052,4.27867 -2.05106,0.0187 -3.28693,-1.52667 -3.28173,-4.104"
         style="fill:#ffffff;fill-opacity:1;fill-rule:nonzero;stroke:none;stroke-width:0.133333" />
      <path
         id="path18"
         d="m 140.18133,107.42667 c -0.0213,1.74266 -0.928,2.904 -2.29333,2.94133 -1.42534,0.04 -2.50534,-1.23467 -2.504,-2.95333 0.003,-1.844 1.04,-3.212 2.46,-3.24267 1.444,-0.032 2.364,1.248 2.33733,3.25467"
         style="fill:#ffffff;fill-opacity:1;fill-rule:nonzero;stroke:none;stroke-width:0.133333" />
      <path
         id="path19"
         d="m 173.19066,149.99853 c -0.38,1.0932 -0.62,1.68547 -0.784,2.29747 -0.10933,0.40933 -0.584,0.95987 -0.0187,1.24267 0.56533,0.2812 1.344,0.33586 1.88266,-0.009 0.476,-0.30426 0.0227,-0.8464 -0.12933,-1.26 -0.22133,-0.59893 -0.49067,-1.1812 -0.95067,-2.2708 z m 0.64134,-4.70106 c 1.18533,-0.21774 1.86533,0.488 2.284,1.76413 0.996,3.03333 2.09733,6.03173 3.11066,9.05987 0.25334,0.75573 0.76267,1.78906 -0.41733,2.14013 -1.048,0.312 -2.35733,0.6088 -2.74933,-1.06147 -0.21467,-0.91613 -0.736,-1.24946 -1.69334,-1.14533 -1.63066,0.17707 -3.53733,-0.48693 -4.14666,2.0224 -0.20134,0.83227 -1.304,0.6964 -2.07334,0.3896 -0.77866,-0.312 -0.86933,-0.95627 -0.61733,-1.65627 1.26533,-3.51453 2.55867,-7.0188 3.81467,-10.53693 0.42266,-1.1844 1.39466,-0.9204 2.488,-0.97613"
         style="fill:#ffffff;fill-opacity:1;fill-rule:nonzero;stroke:none;stroke-width:0.133333" />
      <path
         id="path20"
         d="m 184.57733,152.1652 c 0,1.63227 -0.032,3.26413 0.0107,4.8948 0.0347,1.3052 -0.848,1.20413 -1.712,1.2588 -0.97867,0.0609 -1.46,-0.28947 -1.46134,-1.32707 -0.003,-3.13693 -0.052,-6.27706 -0.0747,-9.4156 -0.008,-1.01613 0.0253,-1.94013 1.47333,-1.964 1.484,-0.024 1.85733,0.70414 1.79867,2.02387 -0.0653,1.5068 -0.0147,3.0188 -0.0147,4.5292 -0.007,0 -0.0133,0 -0.02,0"
         style="fill:#ffffff;fill-opacity:1;fill-rule:nonzero;stroke:none;stroke-width:0.133333" />
      <path
         id="path22"
         d="m 70.328132,93.492001 c -0.08853,0 -0.1776,-0.0067 -0.268267,-0.02 -7.6276,-1.188 -13.1484,-8.109333 -12.306266,-15.427999 0.7204,-6.257334 5.849066,-11.302667 12.194799,-11.994667 6.166667,-0.670666 12.0724,2.905334 14.364133,8.701333 0.350534,0.888 -0.08493,1.892 -0.972933,2.242667 -0.887467,0.352 -1.892667,-0.084 -2.243733,-0.972 -1.7204,-4.350667 -6.15,-7.038666 -10.772933,-6.533333 -4.754667,0.517333 -8.595867,4.282666 -9.133334,8.952 -0.6328,5.497333 3.584934,10.707999 9.402534,11.614666 0.943333,0.146667 1.589066,1.030667 1.442266,1.974667 -0.1328,0.853333 -0.869333,1.462666 -1.706266,1.462666"
         style="fill:#ffffff;fill-opacity:1;fill-rule:nonzero;stroke:none;stroke-width:0.133333" />
      <path
         id="path23"
         d="m 138.676,88.142668 c -0.20934,0 -0.42134,-0.04 -0.62667,-0.126667 -0.82133,-0.346666 -1.20533,-1.293333 -0.86,-2.114666 1.38,-3.268 0.776,-7.109333 -1.53867,-9.786667 -2.32146,-2.686666 -5.90946,-3.821333 -9.36373,-2.964 -0.86613,0.216 -1.74053,-0.312 -1.95573,-1.176 -0.21454,-0.865333 0.31253,-1.741333 1.1772,-1.955999 4.64106,-1.153334 9.4636,0.373333 12.58493,3.983999 3.11067,3.6 3.924,8.762667 2.07067,13.153333 -0.26,0.617334 -0.85867,0.986667 -1.488,0.986667"
         style="fill:#ffffff;fill-opacity:1;fill-rule:nonzero;stroke:none;stroke-width:0.133333" />
      <path
         id="path24"
         d="M 140.87866,129.11467 V 145.024"
         style="fill:#ffffff;fill-opacity:1;fill-rule:nonzero;stroke:none;stroke-width:0.133333" />
      <path
         id="path25"
         d="m 140.87866,146.63867 c -0.892,0 -1.61466,-0.7224 -1.61466,-1.61467 v -15.90933 c 0,-0.89067 0.72266,-1.61467 1.61466,-1.61467 0.89067,0 1.61334,0.724 1.61334,1.61467 V 145.024 c 0,0.89227 -0.72267,1.61467 -1.61334,1.61467"
         style="fill:#ffffff;fill-opacity:1;fill-rule:nonzero;stroke:none;stroke-width:0.133333" />
    </g>
    <text
       xml:space="preserve"
       style="font-style:normal;font-variant:normal;font-weight:normal;font-stretch:normal;font-size:179.231px;font-family:'Arial Rounded MT Bold';-inkscape-font-specification:'Arial Rounded MT Bold, Normal';font-variant-ligatures:normal;font-variant-caps:normal;font-variant-numeric:normal;font-variant-east-asian:normal;text-align:start;writing-mode:lr-tb;direction:ltr;text-anchor:start;fill:#666666;stroke:#000000;stroke-width:0;stroke-linecap:round;stroke-linejoin:round"
       x="851.43005"
       y="276.2132"
       id="text26"><tspan
         sodipodi:role="line"
         id="tspan26"
         x="851.43005"
         y="276.2132"
         style="font-style:normal;font-variant:normal;font-weight:normal;font-stretch:normal;font-size:179.231px;font-family:'Arial Rounded MT Bold';-inkscape-font-specification:'Arial Rounded MT Bold, Normal';font-variant-ligatures:normal;font-variant-caps:normal;font-variant-numeric:normal;font-variant-east-asian:normal;fill:#666666;stroke-width:0">Vault</tspan></text>
    <text
       xml:space="preserve"
       style="font-style:normal;font-variant:normal;font-weight:normal;font-stretch:normal;font-size:179.231px;font-family:'Arial Rounded MT Bold';-inkscape-font-specification:'Arial Rounded MT Bold, Normal';font-variant-ligatures:normal;font-variant-caps:normal;font-variant-numeric:normal;font-variant-east-asian:normal;text-align:start;writing-mode:lr-tb;direction:ltr;text-anchor:start;fill:#666666;stroke:#000000;stroke-width:0;stroke-linecap:round;stroke-linejoin:round"
       x="362.384"
       y="276.2132"
       id="text26-5"><tspan
         sodipodi:role="line"
         id="tspan26-9"
         x="362.384"
         y="276.2132"
         style="font-style:normal;font-variant:normal;font-weight:normal;font-stretch:normal;font-size:179.231px;font-family:'Arial Rounded MT Bold';-inkscape-font-specification:'Arial Rounded MT Bold, Normal';font-variant-ligatures:normal;font-variant-caps:normal;font-variant-numeric:normal;font-variant-east-asian:normal;fill:#666666;stroke-width:0">Koala</tspan></text>
  </g>
</svg>
